<?xml version="1.0" encoding="utf-8"?>
<!-- Generator: Adobe Illustrator 28.1.0, SVG Export Plug-In . SVG Version: 6.00 Build 0)  -->
<svg version="1.1" id="Layer_1" xmlns="http://www.w3.org/2000/svg" xmlns:xlink="http://www.w3.org/1999/xlink" x="0px" y="0px"
	 viewBox="0 0 72 72" style="enable-background:new 0 0 72 72;" xml:space="preserve">
<style type="text/css">
	.st0{fill:#08A5C3;}
	.st1{fill:#F4248C;}
	.st2{fill:#FFD317;}
	.st3{fill:#59DA2E;}
	.st4{fill:#1A1D24;}
</style>
<g>
	<rect y="0" class="st0" width="72" height="72"/>
</g>
<circle class="st1" cx="36" cy="13.4" r="3.7"/>
<circle class="st2" cx="19.8" cy="28.6" r="3.7"/>
<circle class="st3" cx="52.4" cy="28.6" r="3.7"/>
<g>
	<polygon class="st4" points="14,53.4 18,49.4 14,45.4 	"/>
	<polygon class="st4" points="58,53.4 58,45.4 54,49.4 	"/>
	<path class="st4" d="M50,37.6v13.7l-12,8.6V30.5h9c0.8,2.2,2.9,3.8,5.4,3.8c3.2,0,5.8-2.6,5.8-5.8s-2.6-5.8-5.8-5.8
		c-2.4,0-4.5,1.5-5.4,3.7h-9v-7.7c2.2-0.8,3.8-2.9,3.8-5.4c0-3.2-2.6-5.8-5.8-5.8c-3.2,0-5.8,2.6-5.8,5.8c0,2.5,1.6,4.6,3.8,5.4v7.7
		h-8.9c-0.8-2.2-2.9-3.7-5.4-3.7c-3.2,0-5.8,2.6-5.8,5.8s2.6,5.8,5.8,5.8c2.5,0,4.6-1.6,5.4-3.8H34v29.4l-12-8.6V37.6h-4v11.7v4
		l18,12l18-12v-4V37.6H50z M52.4,26.3c1.2,0,2.2,1,2.2,2.2s-1,2.2-2.2,2.2c-1.2,0-2.2-1-2.2-2.2S51.1,26.3,52.4,26.3z M36,11.1
		c1.2,0,2.2,1,2.2,2.2s-1,2.2-2.2,2.2c-1.2,0-2.2-1-2.2-2.2S34.8,11.1,36,11.1z M19.8,30.8c-1.2,0-2.2-1-2.2-2.2s1-2.2,2.2-2.2
		c1.2,0,2.2,1,2.2,2.2S21,30.8,19.8,30.8z"/>
</g>
</svg>
