<?xml version="1.0" encoding="utf-8"?>
<!-- Generator: Adobe Illustrator 28.1.0, SVG Export Plug-In . SVG Version: 6.00 Build 0)  -->
<svg version="1.1" id="Layer_1" xmlns="http://www.w3.org/2000/svg" xmlns:xlink="http://www.w3.org/1999/xlink" x="0px" y="0px"
	 viewBox="0 0 72 72" style="enable-background:new 0 0 72 72;" xml:space="preserve">
<style type="text/css">
	.st0{fill:#08A5C3;}
	.st1{fill:#F4248C;}
	.st2{fill:#FFD317;}
	.st3{fill:#59DA2E;}
	.st4{fill:#1A1D24;}
</style>
<g>
	<rect y="0" class="st0" width="72" height="72"/>
</g>
<circle class="st1" cx="36" cy="20.9" r="2.5"/>
<circle class="st2" cx="25.1" cy="31.2" r="2.5"/>
<circle class="st3" cx="47" cy="31.2" r="2.5"/>
<g>
	<polygon class="st4" points="21.2,47.9 23.9,45.2 21.2,42.5 	"/>
	<polygon class="st4" points="50.8,47.9 50.8,42.5 48.1,45.2 	"/>
	<path class="st4" d="M45.4,37.3v9.3l-8.1,5.8V32.5h6c0.5,1.5,2,2.6,3.6,2.6c2.1,0,3.9-1.7,3.9-3.9s-1.7-3.9-3.9-3.9
		c-1.6,0-3,1-3.6,2.5h-6.1v-5.2c1.5-0.5,2.5-2,2.5-3.6c0-2.1-1.7-3.9-3.9-3.9c-2.1,0-3.9,1.7-3.9,3.9c0,1.7,1.1,3.1,2.5,3.6v5.2h-6
		c-0.6-1.4-2-2.5-3.6-2.5c-2.1,0-3.9,1.7-3.9,3.9s1.7,3.9,3.9,3.9c1.7,0,3.1-1.1,3.6-2.6h6v19.8l-8.1-5.8v-9.3h-2.7v7.9v2.7L36,55.9
		l12.1-8.1v-2.7v-7.9H45.4z M47,29.6c0.8,0,1.5,0.7,1.5,1.5s-0.7,1.5-1.5,1.5c-0.8,0-1.5-0.7-1.5-1.5S46.2,29.6,47,29.6z M36,19.4
		c0.8,0,1.5,0.7,1.5,1.5s-0.7,1.5-1.5,1.5c-0.8,0-1.5-0.7-1.5-1.5S35.2,19.4,36,19.4z M25.1,32.7c-0.8,0-1.5-0.7-1.5-1.5
		s0.7-1.5,1.5-1.5c0.8,0,1.5,0.7,1.5,1.5S25.9,32.7,25.1,32.7z"/>
</g>
</svg>
